<svg version="1.2" xmlns="http://www.w3.org/2000/svg" viewBox="0 0 4167 4167" width="4167" height="4167">
	<title>163372-OVE4EN-124-ai</title>
	<defs>
		<linearGradient id="g1" x2="1" gradientUnits="userSpaceOnUse" gradientTransform="matrix(0,-402.721,313.959,0,2092.529,2520.776)">
			<stop offset="0" stop-color="#c92361"/>
			<stop offset=".514" stop-color="#2d0715"/>
			<stop offset="1" stop-color="#c92361"/>
		</linearGradient>
		<linearGradient id="g2" x2="1" gradientUnits="userSpaceOnUse" gradientTransform="matrix(0,394.289,-315.509,0,2073.013,1450.643)">
			<stop offset="0" stop-color="#c92361"/>
			<stop offset=".514" stop-color="#2d0715"/>
			<stop offset="1" stop-color="#c92361"/>
		</linearGradient>
		<linearGradient id="g3" x2="1" gradientUnits="userSpaceOnUse" gradientTransform="matrix(516.852,66.999,-46.129,355.849,1427.874,2139.035)">
			<stop offset="0" stop-color="#ff5788"/>
			<stop offset=".514" stop-color="#481b28"/>
			<stop offset="1" stop-color="#ff5788"/>
		</linearGradient>
		<linearGradient id="g4" x2="1" gradientUnits="userSpaceOnUse" gradientTransform="matrix(484.278,48.127,-31.059,312.532,2277.455,1474.27)">
			<stop offset="0" stop-color="#ff5788"/>
			<stop offset=".514" stop-color="#481b28"/>
			<stop offset="1" stop-color="#ff5788"/>
		</linearGradient>
	</defs>
	<style>
		.s1 { fill: url(#g1) }
		.s2 { fill: url(#g2) }
		.s3 { fill: url(#g3) }
		.s4 { fill: url(#g4) }
		.s5 { fill: #ff5788 }
		.s6 { fill: #c92361 }
	</style>
	<g id="OBJECTS">
		<g id="&lt;Group&gt;">
			<g id="&lt;Group&gt;">
				<g id="&lt;Group&gt;">
					<g id="&lt;Group&gt;">
						<g id="&lt;Group&gt;">
							<path id="&lt;Path&gt;" class="s5" d="m3074.8 1644.6c0-77.5-62.8-140.3-140.3-140.3h-761l-42 280.5h803c77.5 0 140.3-62.8 140.3-140.2z"/>
							<path id="&lt;Path&gt;" class="s5" d="m1108.6 2320.4c0 77.5 62.8 140.3 140.2 140.3h781.4l42-280.5h-823.4c-77.4 0-140.2 62.8-140.2 140.2z"/>
						</g>
						<g id="&lt;Group&gt;">
							<path id="&lt;Path&gt;" class="s6" d="m1889.3 944.7c-81.6-12.9-158.3 42.8-171.3 124.4l-144.6 913.4h303.1l137.3-866.5c12.9-81.7-42.8-158.4-124.5-171.3z"/>
							<path id="&lt;Path&gt;" class="s6" d="m2306.8 1982.5l-137.2 866.5c-13 81.7 42.8 158.4 124.4 171.3 7.9 1.3 15.8 1.9 23.6 1.9 72.3 0 136-52.6 147.7-126.3l144.6-913.4z"/>
						</g>
					</g>
					<g id="&lt;Group&gt;">
						<path id="&lt;Path&gt;" class="s1" d="m2291.8 2074.6l-76.7 487.1h303.1l76.7-487.1z"/>
						<path id="&lt;Path&gt;" class="s2" d="m1663.7 1413.3l-75 472.5h303.1l75-472.5z"/>
					</g>
				</g>
				<g id="&lt;Group&gt;">
					<path id="&lt;Path&gt;" class="s3" d="m1444.3 2180.2l-44.5 280.5h502.4l44.4-280.5z"/>
				</g>
				<g id="&lt;Group&gt;">
					<path id="&lt;Path&gt;" class="s4" d="m2278.7 1504.3l-44.5 280.5h502.4l44.4-280.5z"/>
				</g>
			</g>
			<g id="&lt;Group&gt;">
				<g id="&lt;Group&gt;">
					<path id="&lt;Path&gt;" class="s6" d="m1436.1 2849c-12.9 81.7 42.8 158.4 124.5 171.3 7.9 1.3 15.8 1.9 23.6 1.9 72.3 0 136-52.6 147.6-126.3l144.7-913.4h-303.1z"/>
					<path id="&lt;Path&gt;" class="s6" d="m2747.2 1116c12.9-81.7-42.8-158.4-124.5-171.3-81.6-13-158.3 42.8-171.2 124.4l-144.7 913.4h303.1z"/>
				</g>
				<g id="&lt;Group&gt;">
					<path id="&lt;Path&gt;" class="s5" d="m1352.1 1504.3c-77.5 0-140.3 62.8-140.3 140.3 0 77.4 62.8 140.2 140.3 140.2h779.4l42-280.5z"/>
					<path id="&lt;Path&gt;" class="s5" d="m2831.2 2460.7c77.5 0 140.3-62.8 140.3-140.3 0-77.4-62.8-140.2-140.3-140.2h-759l-42 280.5z"/>
				</g>
			</g>
		</g>
	</g>
</svg>